<?xml version="1.0" encoding="utf-8"?>
<!-- Generator: Adobe Illustrator 24.0.2, SVG Export Plug-In . SVG Version: 6.00 Build 0)  -->
<svg version="1.1" id="Layer_1" xmlns="http://www.w3.org/2000/svg" xmlns:xlink="http://www.w3.org/1999/xlink" x="0px" y="0px"
	 viewBox="0 0 332.77 175.52" style="enable-background:new 0 0 332.77 175.52;" xml:space="preserve">
<style type="text/css">
	.st0{fill:#FFFFFF;}
	.st1{font-family:'FlandersArtSans-Bold';}
	.st2{font-size:60px;}
</style>
<g>
	<path class="st0" d="M23.48,48.5c3.54,1.55,6.77,2.67,10.72,2.67c2.37,0,4.07-0.44,5.16-1.08s1.61-1.49,1.61-2.43
		c0-1.41-1.17-2.31-2.93-3.13c-0.88-0.38-1.88-0.76-2.99-1.14c-2.26-0.7-4.63-1.58-6.86-2.81c-2.26-1.23-4.07-2.93-5.13-5.36
		c-0.56-1.2-0.82-2.67-0.82-4.34c0-4.34,1.93-7.09,4.72-8.76s6.39-2.29,9.76-2.29c3.96,0,7.44,0.82,9.79,1.64v7.79l-0.09,0.12
		c-0.67-0.21-1.99-0.53-3.6-0.79c-1.64-0.26-3.54-0.47-5.42-0.47c-1.64,0-3.25,0.18-4.48,0.62s-2.05,1.14-2.05,2.29
		c0,1.38,1.2,2.34,3.05,3.16c0.91,0.44,1.96,0.85,3.13,1.23c2.34,0.82,4.83,1.73,7.18,2.93s4.25,2.84,5.36,5.07
		c0.56,1.14,0.82,2.46,0.82,3.96c0,3.96-2.08,7-5.19,9.08s-7.24,3.16-11.31,3.16c-3.87,0-7.62-0.97-10.43-2.96V48.5z"/>
	<path class="st0" d="M55.68,59.01V20.4h10.17c7.27,0,12.28,1,15.53,3.08s4.66,5.21,4.66,9.46c0,5.07-2.46,8.47-6.33,10.58
		c-3.9,2.14-9.23,2.99-15.06,3.08v12.42H55.68z M64.64,28.84v9.35h1.9c3.46,0,6.09-0.38,7.88-1.11s2.7-1.88,2.7-3.43
		c0-3.4-3.81-4.8-10.58-4.8H64.64z"/>
	<path class="st0" d="M89.99,39.68c0-5.63,2.08-10.58,5.63-14.15c3.52-3.57,8.53-5.71,14.41-5.71s10.84,2.14,14.27,5.71
		s5.39,8.53,5.39,14.15s-2.05,10.58-5.57,14.15s-8.53,5.77-14.41,5.77s-10.81-2.2-14.27-5.77S89.99,45.3,89.99,39.68z M98.95,39.38
		c0,3.31,1,6.27,2.9,8.38c1.88,2.14,4.63,3.43,8.14,3.43c3.4,0,6.12-1.2,7.94-3.22c1.82-1.99,2.78-4.8,2.78-8
		c0-3.37-0.94-6.27-2.78-8.38s-4.54-3.37-8.03-3.37c-3.43,0-6.18,1.2-8.06,3.19S98.95,36.22,98.95,39.38z"/>
	<path class="st0" d="M135.4,59.01V20.4h11.04c6.33,0,11.16,0.97,14.44,3.08s4.98,5.33,4.98,9.87c0,3.16-0.64,5.6-1.7,7.5
		c-1.08,1.9-2.64,3.34-4.42,4.48c0.82,1.96,2.34,3.63,4.07,5.01c1.73,1.41,3.66,2.43,5.3,3.13l0.12,0.26l-4.1,5.8
		c-2.61,0-5.6-1.52-8.2-3.72s-4.83-5.1-6.01-7.79c-2.14,0.32-4.25,0.5-6.56,0.5v10.49H135.4z M144.36,28.93V40h1.05
		c8.06,0,11.54-1.82,11.54-5.89c0-1.73-0.64-3.05-2.29-3.9c-1.67-0.85-4.37-1.29-8.5-1.29H144.36z"/>
	<path class="st0" d="M170.41,20.4h31.73v8.47h-11.4v30.15h-8.96V28.87h-11.37V20.4z"/>
</g>
<text transform="matrix(1 0 0 1 239.5327 154.9687)" class="st0 st1 st2">US</text>
<text transform="matrix(1 0 0 1 78.5327 154.9687)" class="st0 st1 st2">C</text>
<rect x="210.82" y="37.29" class="st0" width="98.68" height="8.14"/>
<rect x="23.3" y="133.23" class="st0" width="48.7" height="8.14"/>
<g>
	<path class="st0" d="M23.42,68.4h8.96v38.61h-8.96V68.4z"/>
	<path class="st0" d="M48.65,84.02v23h-8.94V68.4h8.94l14.41,23.03V68.4H72v38.61h-8.94L48.65,84.02z"/>
	<path class="st0" d="M88.55,84.02v23h-8.94V68.4h8.94l14.41,23.03V68.4h8.94v38.61h-8.94L88.55,84.02z"/>
	<path class="st0" d="M117.91,87.68c0-5.63,2.08-10.58,5.63-14.15c3.52-3.57,8.53-5.71,14.41-5.71s10.84,2.14,14.27,5.71
		s5.39,8.53,5.39,14.15s-2.05,10.58-5.57,14.15s-8.52,5.77-14.41,5.77s-10.81-2.2-14.27-5.77S117.91,93.3,117.91,87.68z
		 M126.87,87.38c0,3.31,1,6.27,2.9,8.38c1.88,2.14,4.63,3.43,8.14,3.43c3.4,0,6.12-1.2,7.94-3.22c1.82-1.99,2.78-4.8,2.78-8
		c0-3.37-0.94-6.27-2.78-8.38c-1.85-2.11-4.54-3.37-8.03-3.37c-3.43,0-6.18,1.2-8.06,3.19C127.9,81.41,126.87,84.22,126.87,87.38z"
		/>
	<path class="st0" d="M159.51,68.4h9.43l9.26,26.87l9.26-26.87h9.43l-13.3,38.61h-10.81L159.51,68.4z"/>
	<path class="st0" d="M221.88,100.13h-15.79l-2.37,6.88h-9.46l13.27-38.61h13.07l13.3,38.61h-9.64L221.88,100.13z M208.99,91.72
		h9.96l-4.98-14.53L208.99,91.72z"/>
	<path class="st0" d="M230.96,68.4h31.73v8.47h-11.4v30.15h-8.96V76.87h-11.37V68.4z"/>
	<path class="st0" d="M266.79,68.4h8.96v38.61h-8.96V68.4z"/>
	<path class="st0" d="M282.79,68.4h26.48v8.44h-17.55v6.86h17.55v8.03h-17.55v6.86h17.55v8.44h-26.48V68.4z"/>
</g>
<g>
	<path class="st0" d="M144.97,148.08h-15.79l-2.37,6.88h-9.46l13.27-38.61h13.07l13.3,38.61h-9.64L144.97,148.08z M132.08,139.68
		h9.96l-4.98-14.53L132.08,139.68z"/>
	<path class="st0" d="M189.07,134.02l-4.39,8.96h-8.94l-4.54-9.08l-0.26,21.06h-8.96l0.5-38.61h8.96l8.73,17.64l8.64-17.64h8.96
		l0.62,38.61h-8.96L189.07,134.02z"/>
	<path class="st0" d="M206.02,154.97v-38.61h10.17c7.27,0,12.28,1,15.53,3.08s4.66,5.21,4.66,9.46c0,5.07-2.46,8.47-6.33,10.58
		c-3.9,2.14-9.23,2.99-15.06,3.08v12.42H206.02z M214.98,124.79v9.35h1.9c3.46,0,6.09-0.38,7.88-1.11s2.7-1.88,2.7-3.43
		c0-3.4-3.81-4.8-10.58-4.8H214.98z"/>
</g>
</svg>
