<?xml version="1.0" standalone="no"?>
<!DOCTYPE svg PUBLIC "-//W3C//DTD SVG 20010904//EN"
 "http://www.w3.org/TR/2001/REC-SVG-20010904/DTD/svg10.dtd">
<svg version="1.0" xmlns="http://www.w3.org/2000/svg"
 width="253.000000pt" height="253.000000pt" viewBox="0 0 253.000000 253.000000"
 preserveAspectRatio="xMidYMid meet">
<metadata>
Created by potrace 1.11, written by Peter Selinger 2001-2013
</metadata>
<g transform="translate(0.000000,253.000000) scale(0.100000,-0.100000)"
fill="#000000" stroke="none">
<path d="M1221 2520 c-373 -78 -603 -423 -527 -790 21 -99 84 -223 151 -298
42 -46 55 -67 55 -92 0 -30 -4 -33 -124 -90 -167 -80 -168 -80 -194 -35 -26
43 -45 52 -78 35 -32 -17 -37 -40 -20 -81 14 -33 14 -34 -20 -57 -62 -42 -77
-101 -44 -178 33 -76 87 -113 148 -101 15 3 83 33 152 66 69 34 131 61 138 61
9 0 12 -44 13 -182 5 -705 4 -692 22 -719 27 -41 62 -54 144 -53 70 1 77 3
106 33 31 31 32 34 37 143 l5 112 153 0 152 1 0 -95 c0 -159 39 -202 173 -194
64 4 75 8 102 34 l30 30 2 148 c2 81 3 174 3 207 l0 60 60 1 c32 0 70 6 84 14
36 19 56 69 56 137 0 55 2 60 30 76 44 26 60 65 60 144 0 70 -6 84 -62 155
-26 33 -26 35 -30 210 -3 203 -6 211 -93 232 l-46 12 20 25 c30 39 77 138 97
204 25 82 24 266 -1 350 -66 221 -236 393 -455 459 -65 20 -236 29 -299 16z"/>
</g>
</svg>
