<svg xmlns="http://www.w3.org/2000/svg" width="1485" height="703" viewBox="0 0 1485 703">
  <g id="Group_62" data-name="Group 62" transform="translate(-72 -27)">
    <circle id="Ellipse_27" data-name="Ellipse 27" cx="7.5" cy="7.5" r="7.5" transform="translate(396 88)" fill="#bf6663"/>
    <rect id="Rectangle_54" data-name="Rectangle 54" width="5.4" height="24" rx="2.7" transform="translate(427.5 601.998) rotate(90)" fill="#fbef85"/>
    <rect id="Rectangle_55" data-name="Rectangle 55" width="5.4" height="24" rx="2.7" transform="translate(412.8 592.175)" fill="#fbef85"/>
    <rect id="Rectangle_38" data-name="Rectangle 38" width="9" height="40" rx="4.5" transform="translate(200 656.359) rotate(90)" fill="#f3e565"/>
    <rect id="Rectangle_39" data-name="Rectangle 39" width="9" height="40" rx="4.5" transform="translate(175.5 639.629)" fill="#f3e565"/>
    <circle id="Ellipse_27-2" data-name="Ellipse 27" cx="7.5" cy="7.5" r="7.5" transform="translate(72 463)" fill="#f6d9cf"/>
    <rect id="Rectangle_56" data-name="Rectangle 56" width="5.4" height="24" rx="2.7" transform="translate(249.5 261.688) rotate(90)" fill="#fbef85"/>
    <rect id="Rectangle_57" data-name="Rectangle 57" width="5.4" height="24" rx="2.7" transform="translate(234.8 253.07)" fill="#fbef85"/>
    <rect id="Rectangle_58" data-name="Rectangle 58" width="9" height="40" rx="4.5" transform="translate(112 88.5) rotate(90)" fill="#f3e565"/>
    <rect id="Rectangle_59" data-name="Rectangle 59" width="9" height="42" rx="4.5" transform="translate(87.5 72)" fill="#f3e565"/>
    <rect id="Rectangle_62" data-name="Rectangle 62" width="5.4" height="24" rx="2.7" transform="translate(1134.996 111.3) rotate(90)" fill="#fbef85"/>
    <rect id="Rectangle_63" data-name="Rectangle 63" width="5.4" height="24" rx="2.7" transform="translate(1120.972 102)" fill="#fbef85"/>
    <circle id="Ellipse_28" data-name="Ellipse 28" cx="11.5" cy="11.5" r="11.5" transform="translate(1092 404)" fill="#bf6663"/>
    <circle id="Ellipse_107" data-name="Ellipse 107" cx="11.5" cy="11.5" r="11.5" transform="translate(755 297)" fill="#bf6663"/>
    <circle id="Ellipse_111" data-name="Ellipse 111" cx="11.5" cy="11.5" r="11.5" transform="translate(567 563)" fill="#bf6663"/>
    <circle id="Ellipse_109" data-name="Ellipse 109" cx="11.5" cy="11.5" r="11.5" transform="matrix(-0.208, 0.978, -0.978, -0.208, 1002.878, 697.149)" fill="#bf6663"/>
    <circle id="Ellipse_30" data-name="Ellipse 30" cx="11.5" cy="11.5" r="11.5" transform="translate(1220 75)" fill="#bf6663"/>
    <rect id="Rectangle_72" data-name="Rectangle 72" width="5.4" height="24" rx="2.7" transform="translate(1387.291 173.3) rotate(90)" fill="#fbef85"/>
    <rect id="Rectangle_73" data-name="Rectangle 73" width="5.4" height="24" rx="2.7" transform="translate(1372.591 164)" fill="#fbef85"/>
    <rect id="Rectangle_144" data-name="Rectangle 144" width="9" height="40" rx="4.5" transform="translate(1419.791 689.947) rotate(90)" fill="#f3e565"/>
    <rect id="Rectangle_145" data-name="Rectangle 145" width="9" height="40" rx="4.5" transform="translate(1395.291 673.015)" fill="#f3e565"/>
    <circle id="Ellipse_57" data-name="Ellipse 57" cx="7.5" cy="7.5" r="7.5" transform="translate(1316 470)" fill="#f6d9cf"/>
    <rect id="Rectangle_146" data-name="Rectangle 146" width="5.4" height="24" rx="2.7" transform="translate(1265.542 321.347) rotate(90)" fill="#fbef85"/>
    <rect id="Rectangle_330" data-name="Rectangle 330" width="5.4" height="24" rx="2.7" transform="translate(842.507 624.686) rotate(90)" fill="#fbef85"/>
    <rect id="Rectangle_147" data-name="Rectangle 147" width="5.4" height="24" rx="2.7" transform="translate(1251.803 312.518)" fill="#fbef85"/>
    <rect id="Rectangle_331" data-name="Rectangle 331" width="5.4" height="24" rx="2.7" transform="translate(827.842 614.782)" fill="#fbef85"/>
    <circle id="Ellipse_58" data-name="Ellipse 58" cx="7.5" cy="7.5" r="7.5" transform="translate(1376 359)" fill="#bf6663"/>
    <rect id="Rectangle_150" data-name="Rectangle 150" width="9" height="40" rx="4.5" transform="translate(975.411 43.5) rotate(90)" fill="#f3e565"/>
    <rect id="Rectangle_151" data-name="Rectangle 151" width="9" height="42" rx="4.5" transform="translate(951.432 27)" fill="#f3e565"/>
    <rect id="Rectangle_152" data-name="Rectangle 152" width="5.4" height="24" rx="2.7" transform="translate(859.858 418.819) rotate(90)" fill="#fbef85"/>
    <rect id="Rectangle_153" data-name="Rectangle 153" width="5.4" height="24" rx="2.7" transform="translate(845.231 409.644)" fill="#fbef85"/>
    <circle id="Ellipse_59" data-name="Ellipse 59" cx="7.5" cy="7.5" r="7.5" transform="translate(948 298)" fill="#f6d9cf"/>
    <circle id="Ellipse_106" data-name="Ellipse 106" cx="7.5" cy="7.5" r="7.5" transform="translate(656 122)" fill="#f6d9cf"/>
    <circle id="Ellipse_110" data-name="Ellipse 110" cx="7.5" cy="7.5" r="7.5" transform="translate(599 369)" fill="#f6d9cf"/>
    <circle id="Ellipse_108" data-name="Ellipse 108" cx="7.5" cy="7.5" r="7.5" transform="matrix(-0.208, 0.978, -0.978, -0.208, 1135.053, 604.052)" fill="#f6d9cf"/>
    <circle id="Ellipse_60" data-name="Ellipse 60" cx="12" cy="12" r="12" transform="translate(396 354)" fill="#f6d9cf"/>
    <circle id="Ellipse_62" data-name="Ellipse 62" cx="12" cy="12" r="12" transform="translate(566 706)" fill="#f6d9cf"/>
    <circle id="Ellipse_63" data-name="Ellipse 63" cx="12" cy="12" r="12" transform="translate(1252 413)" fill="#f6d9cf"/>
    <circle id="Ellipse_61" data-name="Ellipse 61" cx="12" cy="12" r="12" transform="translate(1533 310)" fill="#f6d9cf"/>
    <rect id="Rectangle_148" data-name="Rectangle 148" width="9" height="40" rx="4.5" transform="translate(1522.791 85.5) rotate(90)" fill="#f3e565"/>
    <rect id="Rectangle_149" data-name="Rectangle 149" width="9" height="42" rx="4.5" transform="translate(1498.291 69)" fill="#f3e565"/>
    <circle id="Ellipse_31" data-name="Ellipse 31" cx="11.5" cy="11.5" r="11.5" transform="translate(1485 531)" fill="#bf6663"/>
  </g>
</svg>
